Started on 2012-11-30 16:39:42 - 2012 Nov 30

Checking File ....
File : /mnt/array1/www/htdocs/wwwroot/files/conversion_queue/135426477748edc.flv
File Exists : Yes
raw_output_for_stat : ffmpeg version N-44546-g66bdc58 Copyright (c) 2000-2012 the FFmpeg developers
  built on Sep 20 2012 14:29:12 with gcc 4.3.2 (Sourcery G++ Lite 2008q3-72)
  configuration: --prefix=/home/administrator/nas/usr/local --arch=arm --target-os=linux --enable-gpl --enable-libx264 --enable-libxvid --enable-cross-compile --cross-prefix=/usr/local/arm/4.3.2/bin/arm-linux- --extra-cflags=-I/home/administrator/nas/usr/local/include --extra-ldflags=-L/home/administrator/nas/usr/local/lib --extra-cflags=-static --extra-ldflags=-static --enable-libfaac --enable-nonfree
  libavutil      51. 73.101 / 51. 73.101
  libavcodec     54. 56.100 / 54. 56.100
  libavformat    54. 27.101 / 54. 27.101
  libavdevice    54.  2.100 / 54.  2.100
  libavfilter     3. 16.104 /  3. 16.104
  libswscale      2.  1.101 /  2.  1.101
  libswresample   0. 15.100 /  0. 15.100
  libpostproc    52.  0.100 / 52.  0.100
Input #0, flv, from '/mnt/array1/www/htdocs/wwwroot/files/conversion_queue/135426477748edc.flv':
  Metadata:
    metadatacreator : modified by youku.com in 20111202
    hasKeyframes    : true
    hasVideo        : true
    hasAudio        : true
    hasMetadata     : true
  Duration: 00:06:05.46, start: 0.000000, bitrate: 287 kb/s
    Stream #0:0: Video: h264 (High), yuv420p, 512x288 [SAR 1:1 DAR 16:9], 15 tbr, 1k tbn, 30 tbc
    Stream #0:1: Audio: aac, 44100 Hz, stereo, s16
Output #0, null, to '/dev/null':
  Metadata:
    metadatacreator : modified by youku.com in 20111202
    hasKeyframes    : true
    hasVideo        : true
    hasAudio        : true
    hasMetadata     : true
    encoder         : Lavf54.27.101
    Stream #0:0: Video: h264, yuv420p, 512x288 [SAR 1:1 DAR 16:9], q=2-31, 90k tbn, 15 tbc
    Stream #0:1: Audio: aac, 44100 Hz, stereo
Stream mapping:
  Stream #0:0 -> #0:0 (copy)
  Stream #0:1 -> #0:1 (copy)
Press [q] to stop, [?] for help
frame= 1099 fps=0.0 q=-1.0 size=       0kB time=00:01:13.28 bitrate=   0.0kbits/s    frame= 2131 fps=2118 q=-1.0 size=       0kB time=00:02:22.10 bitrate=   0.0kbits/s    frame= 2927 fps=1882 q=-1.0 size=       0kB time=00:03:15.14 bitrate=   0.0kbits/s    frame= 3513 fps=1700 q=-1.0 size=       0kB time=00:03:54.24 bitrate=   0.0kbits/s    frame= 4235 fps=1643 q=-1.0 size=       0kB time=00:04:42.35 bitrate=   0.0kbits/s    frame= 4884 fps=1583 q=-1.0 size=       0kB time=00:05:25.63 bitrate=   0.0kbits/s    frame= 5482 fps=1578 q=-1.0 Lsize=       0kB time=00:06:05.46 bitrate=   0.0kbits/s    
video:11157kB audio:1423kB subtitle:0 global headers:0kB muxing overhead -100.000000%


Preparing file...
format : flv
duration : 365.46
size : 13127090
bitrate : 280
video_width : 512
video_height : 288
video_wh_ratio : 1.77777777778
video_codec : h264
video_rate : 15.0002736278
video_bitrate : 244
video_color : N/A
audio_codec : aac
audio_bitrate : 31
audio_rate : 44100
audio_channels : stereo
path : /mnt/array1/www/htdocs/wwwroot/files/conversion_queue/135426477748edc.flv

Converting Video
Conversion Command : /usr/local/bin/ffmpeg -i /mnt/array1/www/htdocs/wwwroot/files/conversion_queue/135426477748edc.flv  -f flv  -vcodec libx264 -r 25  -ab 128000  -ar 22050  /mnt/array1/www/htdocs/wwwroot/files/videos/135426477748edc.flv  2> /mnt/array1/www/htdocs/wwwroot/files/temp/135426478782f47.tmp


Conversion Details

Flv Quick Conv;raw_output_for_stat : ffmpeg version N-44546-g66bdc58 Copyright (c) 2000-2012 the FFmpeg developers
  built on Sep 20 2012 14:29:12 with gcc 4.3.2 (Sourcery G++ Lite 2008q3-72)
  configuration: --prefix=/home/administrator/nas/usr/local --arch=arm --target-os=linux --enable-gpl --enable-libx264 --enable-libxvid --enable-cross-compile --cross-prefix=/usr/local/arm/4.3.2/bin/arm-linux- --extra-cflags=-I/home/administrator/nas/usr/local/include --extra-ldflags=-L/home/administrator/nas/usr/local/lib --extra-cflags=-static --extra-ldflags=-static --enable-libfaac --enable-nonfree
  libavutil      51. 73.101 / 51. 73.101
  libavcodec     54. 56.100 / 54. 56.100
  libavformat    54. 27.101 / 54. 27.101
  libavdevice    54.  2.100 / 54.  2.100
  libavfilter     3. 16.104 /  3. 16.104
  libswscale      2.  1.101 /  2.  1.101
  libswresample   0. 15.100 /  0. 15.100
  libpostproc    52.  0.100 / 52.  0.100
Input #0, flv, from '/mnt/array1/www/htdocs/wwwroot/files/videos/135426477748edc.flv':
  Metadata:
    metadatacreator : modified by youku.com in 20111202
    hasKeyframes    : true
    hasVideo        : true
    hasAudio        : true
    hasMetadata     : true
  Duration: 00:06:05.46, start: 0.000000, bitrate: 287 kb/s
    Stream #0:0: Video: h264 (High), yuv420p, 512x288 [SAR 1:1 DAR 16:9], 15 tbr, 1k tbn, 30 tbc
    Stream #0:1: Audio: aac, 44100 Hz, stereo, s16
Output #0, null, to '/dev/null':
  Metadata:
    metadatacreator : modified by youku.com in 20111202
    hasKeyframes    : true
    hasVideo        : true
    hasAudio        : true
    hasMetadata     : true
    encoder         : Lavf54.27.101
    Stream #0:0: Video: h264, yuv420p, 512x288 [SAR 1:1 DAR 16:9], q=2-31, 90k tbn, 15 tbc
    Stream #0:1: Audio: aac, 44100 Hz, stereo
Stream mapping:
  Stream #0:0 -> #0:0 (copy)
  Stream #0:1 -> #0:1 (copy)
Press [q] to stop, [?] for help
frame=  949 fps=0.0 q=-1.0 size=       0kB time=00:01:03.26 bitrate=   0.0kbits/s    frame= 1554 fps=1522 q=-1.0 size=       0kB time=00:01:43.59 bitrate=   0.0kbits/s    frame= 2311 fps=1500 q=-1.0 size=       0kB time=00:02:34.06 bitrate=   0.0kbits/s    frame= 2872 fps=1407 q=-1.0 size=       0kB time=00:03:11.47 bitrate=   0.0kbits/s    frame= 3812 fps=1500 q=-1.0 size=       0kB time=00:04:14.13 bitrate=   0.0kbits/s    frame= 4811 fps=1577 q=-1.0 size=       0kB time=00:05:20.76 bitrate=   0.0kbits/s    frame= 5482 fps=1636 q=-1.0 Lsize=       0kB time=00:06:05.46 bitrate=   0.0kbits/s    
video:11157kB audio:1423kB subtitle:0 global headers:0kB muxing overhead -100.000000%

raw_output_for_stat : ffmpeg version N-44546-g66bdc58 Copyright (c) 2000-2012 the FFmpeg developers
  built on Sep 20 2012 14:29:12 with gcc 4.3.2 (Sourcery G++ Lite 2008q3-72)
  configuration: --prefix=/home/administrator/nas/usr/local --arch=arm --target-os=linux --enable-gpl --enable-libx264 --enable-libxvid --enable-cross-compile --cross-prefix=/usr/local/arm/4.3.2/bin/arm-linux- --extra-cflags=-I/home/administrator/nas/usr/local/include --extra-ldflags=-L/home/administrator/nas/usr/local/lib --extra-cflags=-static --extra-ldflags=-static --enable-libfaac --enable-nonfree
  libavutil      51. 73.101 / 51. 73.101
  libavcodec     54. 56.100 / 54. 56.100
  libavformat    54. 27.101 / 54. 27.101
  libavdevice    54.  2.100 / 54.  2.100
  libavfilter     3. 16.104 /  3. 16.104
  libswscale      2.  1.101 /  2.  1.101
  libswresample   0. 15.100 /  0. 15.100
  libpostproc    52.  0.100 / 52.  0.100
Input #0, flv, from '/mnt/array1/www/htdocs/wwwroot/files/videos/135426477748edc.flv':
  Metadata:
    metadatacreator : modified by youku.com in 20111202
    hasKeyframes    : true
    hasVideo        : true
    hasAudio        : true
    hasMetadata     : true
  Duration: 00:06:05.46, start: 0.000000, bitrate: 287 kb/s
    Stream #0:0: Video: h264 (High), yuv420p, 512x288 [SAR 1:1 DAR 16:9], 15 tbr, 1k tbn, 30 tbc
    Stream #0:1: Audio: aac, 44100 Hz, stereo, s16
Output #0, null, to '/dev/null':
  Metadata:
    metadatacreator : modified by youku.com in 20111202
    hasKeyframes    : true
    hasVideo        : true
    hasAudio        : true
    hasMetadata     : true
    encoder         : Lavf54.27.101
    Stream #0:0: Video: h264, yuv420p, 512x288 [SAR 1:1 DAR 16:9], q=2-31, 90k tbn, 15 tbc
    Stream #0:1: Audio: aac, 44100 Hz, stereo
Stream mapping:
  Stream #0:0 -> #0:0 (copy)
  Stream #0:1 -> #0:1 (copy)
Press [q] to stop, [?] for help
frame= 1053 fps=0.0 q=-1.0 size=       0kB time=00:01:10.21 bitrate=   0.0kbits/s    frame= 2124 fps=2090 q=-1.0 size=       0kB time=00:02:21.64 bitrate=   0.0kbits/s    frame= 3179 fps=2096 q=-1.0 size=       0kB time=00:03:31.95 bitrate=   0.0kbits/s    frame= 3989 fps=1968 q=-1.0 size=       0kB time=00:04:25.93 bitrate=   0.0kbits/s    frame= 4962 fps=1964 q=-1.0 size=       0kB time=00:05:30.79 bitrate=   0.0kbits/s    frame= 5482 fps=1971 q=-1.0 Lsize=       0kB time=00:06:05.46 bitrate=   0.0kbits/s    
video:11157kB audio:1423kB subtitle:0 global headers:0kB muxing overhead -100.000000%



output_format : flv
output_duration : 365.46
output_size : 13127090
output_bitrate : 280
output_video_width : 512
output_video_height : 288
output_video_wh_ratio : 1.77777777778
output_video_codec : h264
output_video_rate : 15.0002736278
output_video_bitrate : 244
output_video_color : N/A
output_audio_codec : aac
output_audio_bitrate : 31
output_audio_rate : 44100
output_audio_channels : stereo
output_path : /mnt/array1/www/htdocs/wwwroot/files/videos/135426477748edc.flv


Time Took : 12.4561 seconds

conversion_status : failed
